# xmcd CD database file
#
# Track frame offsets:
#	150
#	27349
#	57410
#	65177
#	69285
#	91382
#	92962
#	112924
#	115398
#	119080
#	140728
#	146119
#	151396
#	155730
#	159193
#	185770
#	222889
#	243734
#
# Disc length: 3696 seconds
#
# Revision: 1
# Processed by: cddbd v1.5.2PL0 Copyright (c) Steve Scherf et al.
# Submitted via: CDex 1.70beta2
#
DISCID=180e6e12
DTITLE=Nico Lohmann Quintett - Merging Circles
DYEAR=2016
DGENRE=Jazz
TTITLE0=Cool Drops
TTITLE1=Taube
TTITLE2=Tenor Saxophone
TTITLE3=Piano Cadenza
TTITLE4=Questions
TTITLE5=Soprano Saxophone Cadenza
TTITLE6=38'
TTITLE7=Alto flute Cadenza
TTITLE8=Piano Cadenza
TTITLE9=Amber Sheets
TTITLE10=Alto Saxophone Cadenza
TTITLE11=Bass Cadenza
TTITLE12=Drum Cadenza
TTITLE13=Soprano Saxophone Cadenza
TTITLE14=BER Blues
TTITLE15=Free Time
TTITLE16=Birdy
TTITLE17=Merging Cicles
EXTD=YEAR: 2016
EXTT0=
EXTT1=
EXTT2=
EXTT3=
EXTT4=
EXTT5=
EXTT6=
EXTT7=
EXTT8=
EXTT9=
EXTT10=
EXTT11=
EXTT12=
EXTT13=
EXTT14=
EXTT15=
EXTT16=
EXTT17=
PLAYORDER=
